<svg xmlns="http://www.w3.org/2000/svg" xmlns:xlink="http://www.w3.org/1999/xlink" width="244" zoomAndPan="magnify" viewBox="0 0 183 64.499998" height="86" preserveAspectRatio="xMidYMid meet" version="1.2"><defs><clipPath id="48c1219c64"><path d="M 70.457031 30.847656 L 97.25 30.847656 L 97.25 57.640625 L 70.457031 57.640625 Z M 70.457031 30.847656 "/></clipPath></defs><g id="ec67c0c010"><g style="fill:#000000;fill-opacity:1;"><g transform="translate(50.077454, 54.829572)"><path style="stroke:none" d="M 14.207031 -23.042969 C 16.570312 -23.042969 18.464844 -22.488281 19.882812 -21.386719 C 21.386719 -20.214844 22.140625 -18.53125 22.140625 -16.332031 C 22.140625 -14.730469 21.789062 -13.09375 21.09375 -11.425781 C 20.355469 -9.65625 19.152344 -8.324219 17.492188 -7.421875 C 15.886719 -6.554688 14.09375 -6.144531 12.117188 -6.1875 L 8.734375 -6.1875 L 8.734375 -7.277344 L 9.8125 -7.105469 L 8.5 1.089844 L 0.585938 1.089844 L 4.394531 -23.042969 Z M 14.207031 -20.859375 L 5.328125 -20.859375 L 5.328125 -21.949219 L 6.40625 -21.78125 L 2.941406 0.171875 L 1.863281 0 L 1.863281 -1.089844 L 7.570312 -1.089844 L 7.570312 0 L 6.492188 -0.171875 L 7.800781 -8.371094 L 12.164062 -8.371094 C 13.757812 -8.335938 15.1875 -8.660156 16.453125 -9.34375 C 17.664062 -10 18.539062 -10.972656 19.078125 -12.269531 C 19.664062 -13.667969 19.957031 -15.023438 19.957031 -16.332031 C 19.957031 -17.820312 19.484375 -18.929688 18.542969 -19.660156 C 17.515625 -20.460938 16.070312 -20.859375 14.207031 -20.859375 Z M 11.382812 -17.183594 L 10.539062 -11.710938 L 9.460938 -11.878906 L 9.460938 -12.96875 L 10.859375 -12.96875 C 11.570312 -12.96875 12.148438 -13.03125 12.605469 -13.152344 C 12.957031 -13.246094 13.207031 -13.367188 13.355469 -13.515625 C 13.71875 -13.886719 13.902344 -14.503906 13.902344 -15.371094 C 13.902344 -15.6875 13.832031 -15.890625 13.695312 -15.976562 C 13.398438 -16.164062 12.832031 -16.257812 11.992188 -16.257812 L 10.304688 -16.257812 L 10.304688 -17.351562 Z M 9.371094 -18.441406 L 11.992188 -18.441406 C 13.253906 -18.441406 14.207031 -18.234375 14.863281 -17.820312 C 15.28125 -17.558594 15.59375 -17.199219 15.804688 -16.753906 C 15.992188 -16.351562 16.082031 -15.890625 16.082031 -15.371094 C 16.082031 -13.910156 15.691406 -12.78125 14.910156 -11.984375 C 14.125 -11.183594 12.773438 -10.785156 10.859375 -10.785156 L 8.1875 -10.785156 L 9.226562 -17.515625 Z M 9.371094 -18.441406 "/></g></g><g style="fill:#000000;fill-opacity:1;"><g transform="translate(68.679419, 54.829572)"><path style="stroke:none" d="M 28.078125 -13.101562 C 28.078125 -10.800781 27.421875 -8.4375 26.113281 -6.003906 C 24.792969 -3.550781 22.925781 -1.632812 20.511719 -0.246094 C 18.113281 1.128906 15.535156 1.820312 12.78125 1.820312 C 9.40625 1.820312 6.652344 0.8125 4.519531 -1.199219 C 2.371094 -3.230469 1.296875 -5.886719 1.296875 -9.171875 C 1.296875 -11.824219 1.996094 -14.273438 3.398438 -16.515625 C 4.789062 -18.746094 6.679688 -20.511719 9.070312 -21.816406 C 11.453125 -23.117188 13.921875 -23.769531 16.476562 -23.769531 C 18.53125 -23.769531 20.453125 -23.324219 22.246094 -22.433594 C 24.066406 -21.527344 25.492188 -20.265625 26.523438 -18.648438 C 27.558594 -17.027344 28.078125 -15.175781 28.078125 -13.101562 Z M 25.894531 -13.101562 C 25.894531 -14.75 25.492188 -16.210938 24.683594 -17.476562 C 23.871094 -18.75 22.734375 -19.753906 21.273438 -20.476562 C 19.789062 -21.214844 18.1875 -21.585938 16.476562 -21.585938 C 14.292969 -21.585938 12.175781 -21.023438 10.113281 -19.898438 C 8.058594 -18.777344 6.4375 -17.265625 5.25 -15.359375 C 4.070312 -13.46875 3.480469 -11.40625 3.480469 -9.171875 C 3.480469 -6.515625 4.324219 -4.386719 6.019531 -2.789062 C 7.730469 -1.171875 9.984375 -0.363281 12.78125 -0.363281 C 15.148438 -0.363281 17.363281 -0.957031 19.425781 -2.140625 C 21.480469 -3.316406 23.066406 -4.949219 24.191406 -7.039062 C 25.328125 -9.148438 25.894531 -11.167969 25.894531 -13.101562 Z M 13.652344 -5.894531 C 14.757812 -5.894531 15.777344 -6.199219 16.710938 -6.808594 C 17.679688 -7.441406 18.449219 -8.257812 19.023438 -9.261719 C 19.585938 -10.246094 19.867188 -11.207031 19.867188 -12.140625 C 19.867188 -13.214844 19.457031 -14.132812 18.636719 -14.886719 C 17.785156 -15.664062 16.765625 -16.054688 15.574219 -16.054688 C 14.617188 -16.054688 13.65625 -15.789062 12.695312 -15.257812 C 11.726562 -14.726562 10.949219 -14.007812 10.359375 -13.113281 C 9.789062 -12.246094 9.503906 -11.28125 9.503906 -10.21875 C 9.503906 -8.9375 9.894531 -7.894531 10.671875 -7.089844 C 11.433594 -6.292969 12.429688 -5.894531 13.652344 -5.894531 Z M 13.652344 -3.710938 C 11.808594 -3.710938 10.292969 -4.332031 9.097656 -5.574219 C 7.914062 -6.804688 7.320312 -8.351562 7.320312 -10.21875 C 7.320312 -11.714844 7.726562 -13.082031 8.535156 -14.3125 C 9.320312 -15.507812 10.359375 -16.460938 11.640625 -17.171875 C 12.929688 -17.882812 14.242188 -18.238281 15.574219 -18.238281 C 17.332031 -18.238281 18.84375 -17.65625 20.113281 -16.496094 C 21.40625 -15.308594 22.050781 -13.855469 22.050781 -12.140625 C 22.050781 -10.820312 21.671875 -9.5 20.917969 -8.175781 C 20.171875 -6.871094 19.164062 -5.804688 17.902344 -4.980469 C 16.605469 -4.132812 15.1875 -3.710938 13.652344 -3.710938 Z M 13.652344 -3.710938 "/></g></g><g style="fill:#000000;fill-opacity:1;"><g transform="translate(93.86048, 54.829572)"><path style="stroke:none" d="M 14.003906 -23.042969 C 16.230469 -23.042969 18.042969 -22.5 19.433594 -21.414062 C 20.90625 -20.261719 21.644531 -18.636719 21.644531 -16.535156 C 21.644531 -14.421875 21.015625 -12.554688 19.753906 -10.933594 C 18.476562 -9.285156 16.839844 -8.28125 14.835938 -7.921875 L 14.644531 -8.996094 L 15.574219 -9.5625 L 22.058594 1.089844 L 12.324219 1.089844 L 7.980469 -7.96875 L 8.964844 -8.441406 L 8.964844 -7.351562 L 8.90625 -7.351562 L 8.90625 -8.441406 L 9.984375 -8.269531 L 8.5 1.089844 L 0.585938 1.089844 L 4.394531 -23.042969 Z M 14.003906 -20.859375 L 5.328125 -20.859375 L 5.328125 -21.949219 L 6.40625 -21.78125 L 2.941406 0.171875 L 1.863281 0 L 1.863281 -1.089844 L 7.570312 -1.089844 L 7.570312 0 L 6.492188 -0.171875 L 7.976562 -9.535156 L 9.652344 -9.535156 L 13.996094 -0.472656 L 13.011719 0 L 13.011719 -1.089844 L 20.117188 -1.089844 L 20.117188 0 L 19.183594 0.566406 L 12.882812 -9.789062 L 14.449219 -10.070312 C 15.902344 -10.332031 17.09375 -11.0625 18.03125 -12.269531 C 18.984375 -13.5 19.460938 -14.921875 19.460938 -16.535156 C 19.460938 -17.925781 19.003906 -18.980469 18.089844 -19.691406 C 17.09375 -20.46875 15.730469 -20.859375 14.003906 -20.859375 Z M 9.488281 -13.203125 L 10.277344 -13.203125 C 11.371094 -13.203125 12.1875 -13.410156 12.730469 -13.824219 C 13.179688 -14.167969 13.40625 -14.703125 13.40625 -15.429688 C 13.40625 -15.601562 13.375 -15.738281 13.320312 -15.84375 C 13.265625 -15.945312 13.171875 -16.03125 13.042969 -16.109375 C 12.625 -16.363281 11.925781 -16.492188 10.945312 -16.492188 L 10.363281 -16.492188 L 10.363281 -17.582031 L 11.441406 -17.410156 L 10.566406 -11.9375 L 9.488281 -12.109375 Z M 8.210938 -11.019531 L 9.433594 -18.675781 L 10.945312 -18.675781 C 12.332031 -18.675781 13.410156 -18.441406 14.175781 -17.976562 C 14.636719 -17.699219 14.992188 -17.335938 15.230469 -16.898438 C 15.46875 -16.464844 15.589844 -15.976562 15.589844 -15.429688 C 15.589844 -13.980469 15.078125 -12.867188 14.054688 -12.085938 C 13.121094 -11.375 11.859375 -11.019531 10.277344 -11.019531 Z M 8.210938 -11.019531 "/></g></g><g style="fill:#000000;fill-opacity:1;"><g transform="translate(113.015558, 54.829572)"><path style="stroke:none" d="M 19.855469 -21.78125 L 18.953125 -16.027344 L 13.304688 -16.027344 L 13.304688 -17.117188 L 14.382812 -16.945312 L 11.527344 1.089844 L 3.613281 1.089844 L 6.519531 -17.289062 L 7.597656 -17.117188 L 7.597656 -16.027344 L 1.605469 -16.027344 L 2.703125 -23.042969 L 20.050781 -23.042969 Z M 17.699219 -22.117188 L 18.777344 -21.949219 L 18.777344 -20.859375 L 3.640625 -20.859375 L 3.640625 -21.949219 L 4.71875 -21.78125 L 3.960938 -16.949219 L 2.882812 -17.117188 L 2.882812 -18.210938 L 8.875 -18.210938 L 5.96875 0.171875 L 4.890625 0 L 4.890625 -1.089844 L 10.597656 -1.089844 L 10.597656 0 L 9.519531 -0.171875 L 12.371094 -18.210938 L 18.019531 -18.210938 L 18.019531 -17.117188 L 16.941406 -17.285156 Z M 17.699219 -22.117188 "/></g></g><g style="fill:#000000;fill-opacity:1;"><g transform="translate(127.891306, 54.829572)"><path style="stroke:none" d="M 19.085938 -22.183594 L 24.179688 1.089844 L 15.855469 1.089844 L 14.855469 -3.585938 L 15.921875 -3.8125 L 15.921875 -2.722656 L 8.0625 -2.722656 L 8.0625 -3.8125 L 9.015625 -3.28125 L 6.578125 1.089844 L -1.949219 1.089844 L 11.140625 -23.042969 L 18.898438 -23.042969 Z M 16.953125 -21.714844 L 18.019531 -21.949219 L 18.019531 -20.859375 L 11.789062 -20.859375 L 11.789062 -21.949219 L 12.75 -21.429688 L 0.84375 0.519531 L -0.117188 0 L -0.117188 -1.089844 L 5.9375 -1.089844 L 5.9375 0 L 4.984375 -0.53125 L 7.421875 -4.90625 L 16.808594 -4.90625 L 17.804688 -0.226562 L 16.738281 0 L 16.738281 -1.089844 L 22.824219 -1.089844 L 22.824219 0 L 21.757812 0.234375 Z M 10.335938 -9.273438 L 15.078125 -9.273438 L 15.078125 -8.179688 L 14.003906 -7.992188 L 12.78125 -14.980469 L 13.855469 -15.167969 L 13.855469 -14.074219 L 13.796875 -14.074219 L 13.796875 -15.167969 L 14.777344 -14.683594 L 11.3125 -7.695312 L 10.335938 -8.179688 Z M 8.574219 -7.089844 L 13.121094 -16.257812 L 14.773438 -16.257812 L 16.378906 -7.089844 Z M 8.574219 -7.089844 "/></g></g><g style="fill:#000000;fill-opacity:1;"><g transform="translate(149.986594, 54.829572)"><path style="stroke:none" d="M 12.113281 -21.777344 L 9.402344 -4.660156 L 8.324219 -4.832031 L 8.324219 -5.925781 L 16.441406 -5.925781 L 15.34375 1.089844 L 0.585938 1.089844 L 4.394531 -23.042969 L 12.3125 -23.042969 Z M 9.953125 -22.121094 L 11.03125 -21.949219 L 11.03125 -20.859375 L 5.328125 -20.859375 L 5.328125 -21.949219 L 6.40625 -21.78125 L 2.941406 0.171875 L 1.863281 0 L 1.863281 -1.089844 L 14.410156 -1.089844 L 14.410156 0 L 13.332031 -0.167969 L 14.089844 -5 L 15.167969 -4.832031 L 15.167969 -3.742188 L 7.046875 -3.742188 Z M 9.953125 -22.121094 "/></g></g><g style="fill:#ffcf00;fill-opacity:1;"><g transform="translate(50.077454, 54.829572)"><path style="stroke:none" d="M 14.203125 -21.953125 C 16.316406 -21.953125 17.984375 -21.472656 19.203125 -20.515625 C 20.429688 -19.566406 21.046875 -18.171875 21.046875 -16.328125 C 21.046875 -14.867188 20.722656 -13.375 20.078125 -11.84375 C 19.441406 -10.3125 18.40625 -9.15625 16.96875 -8.375 C 15.53125 -7.601562 13.921875 -7.238281 12.140625 -7.28125 L 8.734375 -7.28125 L 7.5625 0 L 1.859375 0 L 5.328125 -21.953125 Z M 10.3125 -17.34375 L 9.453125 -11.875 L 10.859375 -11.875 C 12.472656 -11.875 13.5625 -12.164062 14.125 -12.75 C 14.695312 -13.332031 14.984375 -14.207031 14.984375 -15.375 C 14.984375 -16.09375 14.742188 -16.597656 14.265625 -16.890625 C 13.796875 -17.191406 13.039062 -17.34375 12 -17.34375 Z M 10.3125 -17.34375 "/></g></g><g style="fill:#ffcf00;fill-opacity:1;"><g transform="translate(68.679419, 54.829572)"><path style="stroke:none" d="M 26.984375 -13.09375 C 26.984375 -10.976562 26.367188 -8.785156 25.140625 -6.515625 C 23.921875 -4.242188 22.195312 -2.46875 19.96875 -1.1875 C 17.738281 0.09375 15.34375 0.734375 12.78125 0.734375 C 9.695312 0.734375 7.191406 -0.171875 5.265625 -1.984375 C 3.347656 -3.804688 2.390625 -6.203125 2.390625 -9.171875 C 2.390625 -11.617188 3.035156 -13.875 4.328125 -15.9375 C 5.617188 -18 7.375 -19.632812 9.59375 -20.84375 C 11.8125 -22.0625 14.101562 -22.671875 16.46875 -22.671875 C 18.351562 -22.671875 20.113281 -22.265625 21.75 -21.453125 C 23.394531 -20.640625 24.675781 -19.507812 25.59375 -18.0625 C 26.519531 -16.613281 26.984375 -14.957031 26.984375 -13.09375 Z M 13.65625 -4.796875 C 14.96875 -4.796875 16.179688 -5.160156 17.296875 -5.890625 C 18.421875 -6.617188 19.3125 -7.5625 19.96875 -8.71875 C 20.625 -9.875 20.953125 -11.015625 20.953125 -12.140625 C 20.953125 -13.535156 20.421875 -14.71875 19.359375 -15.6875 C 18.304688 -16.65625 17.046875 -17.140625 15.578125 -17.140625 C 14.429688 -17.140625 13.296875 -16.828125 12.171875 -16.203125 C 11.046875 -15.585938 10.132812 -14.753906 9.4375 -13.703125 C 8.75 -12.660156 8.40625 -11.5 8.40625 -10.21875 C 8.40625 -8.644531 8.894531 -7.347656 9.875 -6.328125 C 10.863281 -5.304688 12.125 -4.796875 13.65625 -4.796875 Z M 13.65625 -4.796875 "/></g></g><g style="fill:#ffcf00;fill-opacity:1;"><g transform="translate(93.86048, 54.829572)"><path style="stroke:none" d="M 14 -21.953125 C 15.976562 -21.953125 17.5625 -21.484375 18.75 -20.546875 C 19.945312 -19.617188 20.546875 -18.28125 20.546875 -16.53125 C 20.546875 -14.664062 19.992188 -13.019531 18.890625 -11.59375 C 17.785156 -10.164062 16.367188 -9.300781 14.640625 -9 L 20.109375 0 L 13.015625 0 L 8.96875 -8.4375 L 8.90625 -8.4375 L 7.5625 0 L 1.859375 0 L 5.328125 -21.953125 Z M 9.484375 -12.109375 L 10.28125 -12.109375 C 11.613281 -12.109375 12.648438 -12.390625 13.390625 -12.953125 C 14.128906 -13.515625 14.5 -14.335938 14.5 -15.421875 C 14.5 -16.859375 13.3125 -17.578125 10.9375 -17.578125 L 10.359375 -17.578125 Z M 9.484375 -12.109375 "/></g></g><g style="fill:#ffcf00;fill-opacity:1;"><g transform="translate(113.015558, 54.829572)"><path style="stroke:none" d="M 18.78125 -21.953125 L 18.015625 -17.109375 L 13.296875 -17.109375 L 10.59375 0 L 4.890625 0 L 7.59375 -17.109375 L 2.875 -17.109375 L 3.640625 -21.953125 Z M 18.78125 -21.953125 "/></g></g><g style="fill:#ffcf00;fill-opacity:1;"><g transform="translate(127.891306, 54.829572)"><path style="stroke:none" d="M 18.015625 -21.953125 L 22.828125 0 L 16.734375 0 L 15.921875 -3.8125 L 8.0625 -3.8125 L 5.9375 0 L -0.109375 0 L 11.796875 -21.953125 Z M 10.328125 -8.1875 L 15.078125 -8.1875 L 13.859375 -15.171875 L 13.796875 -15.171875 Z M 10.328125 -8.1875 "/></g></g><g style="fill:#ffcf00;fill-opacity:1;"><g transform="translate(149.986594, 54.829572)"><path style="stroke:none" d="M 11.03125 -21.953125 L 8.328125 -4.828125 L 15.171875 -4.828125 L 14.40625 0 L 1.859375 0 L 5.328125 -21.953125 Z M 11.03125 -21.953125 "/></g></g><g style="fill:#ffffff;fill-opacity:1;"><g transform="translate(13.95213, 45.262209)"><path style="stroke:none" d="M 18.890625 -37.578125 L 12.953125 0 L 3.1875 0 L 9.125 -37.578125 Z M 18.890625 -37.578125 "/></g></g><g style="fill:#ffffff;fill-opacity:1;"><g transform="translate(29.000777, 45.262209)"><path style="stroke:none" d="M 18.890625 -37.578125 L 33.140625 -14.59375 L 33.234375 -14.59375 L 36.875 -37.578125 L 46.640625 -37.578125 L 40.703125 0 L 30.9375 0 L 16.6875 -23.015625 L 16.59375 -23.015625 L 12.953125 0 L 3.1875 0 L 9.125 -37.578125 Z M 18.890625 -37.578125 "/></g></g><g style="fill:#ffffff;fill-opacity:1;"><g transform="translate(71.804729, 45.262209)"><path style="stroke:none" d="M 22.03125 -38.5625 C 26.039062 -38.5625 29.804688 -37.535156 33.328125 -35.484375 L 28.25 -27.90625 C 26.488281 -29.5625 24.460938 -30.390625 22.171875 -30.390625 C 20.972656 -30.390625 19.882812 -30.050781 18.90625 -29.375 C 17.925781 -28.695312 17.4375 -27.859375 17.4375 -26.859375 C 17.4375 -26.128906 17.785156 -25.488281 18.484375 -24.9375 C 19.179688 -24.382812 20.460938 -23.84375 22.328125 -23.3125 C 24.847656 -22.550781 26.671875 -21.8125 27.796875 -21.09375 C 28.929688 -20.382812 29.8125 -19.503906 30.4375 -18.453125 C 31.070312 -17.410156 31.390625 -16.109375 31.390625 -14.546875 C 31.390625 -12.285156 30.804688 -9.894531 29.640625 -7.375 C 28.484375 -4.851562 26.582031 -2.84375 23.9375 -1.34375 C 21.300781 0.144531 18.171875 0.925781 14.546875 1 C 9.898438 1 5.71875 -0.425781 2 -3.28125 L 7.421875 -11.15625 C 10.015625 -8.570312 12.691406 -7.28125 15.453125 -7.28125 C 16.972656 -7.28125 18.253906 -7.675781 19.296875 -8.46875 C 20.347656 -9.269531 20.875 -10.285156 20.875 -11.515625 C 20.875 -13.109375 19.28125 -14.335938 16.09375 -15.203125 C 12.238281 -16.265625 9.742188 -17.398438 8.609375 -18.609375 C 7.484375 -19.816406 6.921875 -21.4375 6.921875 -23.46875 C 6.921875 -27.71875 8.375 -31.296875 11.28125 -34.203125 C 14.1875 -37.109375 17.769531 -38.5625 22.03125 -38.5625 Z M 22.03125 -38.5625 "/></g></g><g style="fill:#ffffff;fill-opacity:1;"><g transform="translate(101.353903, 45.262209)"><path style="stroke:none" d="M 32.140625 -37.578125 L 30.84375 -29.296875 L 22.765625 -29.296875 L 18.140625 0 L 8.375 0 L 13 -29.296875 L 4.9375 -29.296875 L 6.234375 -37.578125 Z M 32.140625 -37.578125 "/></g></g><g style="fill:#ffffff;fill-opacity:1;"><g transform="translate(126.817014, 45.262209)"><path style="stroke:none" d="M 30.84375 -37.578125 L 39.0625 0 L 28.65625 0 L 27.25 -6.53125 L 13.796875 -6.53125 L 10.171875 0 L -0.203125 0 L 20.1875 -37.578125 Z M 17.6875 -14 L 25.8125 -14 L 23.71875 -25.953125 L 23.625 -25.953125 Z M 17.6875 -14 "/></g></g><g style="fill:#ffcf00;fill-opacity:1;"><g transform="translate(50.077454, 54.829572)"><path style="stroke:none" d="M 14.207031 -22.269531 C 16.394531 -22.269531 18.128906 -21.769531 19.410156 -20.773438 C 20.714844 -19.761719 21.367188 -18.277344 21.367188 -16.332031 C 21.367188 -14.832031 21.039062 -13.296875 20.378906 -11.726562 C 19.710938 -10.125 18.625 -8.914062 17.125 -8.105469 C 15.636719 -7.300781 13.972656 -6.917969 12.132812 -6.960938 L 8.734375 -6.960938 L 8.734375 -7.277344 L 9.046875 -7.226562 L 7.839844 0.320312 L 1.492188 0.320312 L 5.054688 -22.269531 Z M 14.207031 -21.632812 L 5.328125 -21.632812 L 5.328125 -21.949219 L 5.640625 -21.898438 L 2.175781 0.0507812 L 1.863281 0 L 1.863281 -0.320312 L 7.570312 -0.320312 L 7.570312 0 L 7.253906 -0.0507812 L 8.460938 -7.597656 L 12.144531 -7.597656 C 13.875 -7.558594 15.433594 -7.914062 16.820312 -8.664062 C 18.191406 -9.40625 19.179688 -10.507812 19.792969 -11.972656 C 20.417969 -13.464844 20.730469 -14.917969 20.730469 -16.332031 C 20.730469 -18.070312 20.160156 -19.386719 19.019531 -20.273438 C 17.851562 -21.179688 16.25 -21.632812 14.207031 -21.632812 Z M 10.621094 -17.300781 L 9.777344 -11.828125 L 9.460938 -11.878906 L 9.460938 -12.195312 L 10.859375 -12.195312 C 12.378906 -12.195312 13.394531 -12.457031 13.90625 -12.972656 C 14.417969 -13.496094 14.671875 -14.292969 14.671875 -15.371094 C 14.671875 -15.972656 14.484375 -16.390625 14.109375 -16.628906 C 13.683594 -16.898438 12.980469 -17.03125 11.992188 -17.03125 L 10.304688 -17.03125 L 10.304688 -17.351562 Z M 10.03125 -17.667969 L 11.992188 -17.667969 C 13.101562 -17.667969 13.921875 -17.5 14.449219 -17.167969 C 15.023438 -16.804688 15.3125 -16.207031 15.3125 -15.371094 C 15.3125 -14.121094 14.992188 -13.171875 14.359375 -12.527344 C 13.726562 -11.882812 12.558594 -11.558594 10.859375 -11.558594 L 9.089844 -11.558594 L 9.992188 -17.398438 Z M 10.03125 -17.667969 "/></g></g><g style="fill:#ffcf00;fill-opacity:1;"><g transform="translate(68.679419, 54.829572)"><path style="stroke:none" d="M 27.304688 -13.101562 C 27.304688 -10.929688 26.679688 -8.6875 25.433594 -6.371094 C 24.179688 -4.046875 22.414062 -2.226562 20.128906 -0.917969 C 17.847656 0.390625 15.398438 1.046875 12.78125 1.046875 C 9.609375 1.046875 7.03125 0.109375 5.050781 -1.761719 C 3.0625 -3.640625 2.070312 -6.109375 2.070312 -9.171875 C 2.070312 -11.675781 2.730469 -13.988281 4.054688 -16.105469 C 5.371094 -18.222656 7.167969 -19.898438 9.441406 -21.136719 C 11.710938 -22.375 14.054688 -22.996094 16.476562 -22.996094 C 18.410156 -22.996094 20.21875 -22.578125 21.902344 -21.738281 C 23.59375 -20.898438 24.917969 -19.730469 25.871094 -18.234375 C 26.828125 -16.738281 27.304688 -15.023438 27.304688 -13.101562 Z M 26.667969 -13.101562 C 26.667969 -14.902344 26.222656 -16.5 25.335938 -17.890625 C 24.445312 -19.289062 23.207031 -20.382812 21.617188 -21.167969 C 20.023438 -21.960938 18.308594 -22.359375 16.476562 -22.359375 C 14.164062 -22.359375 11.917969 -21.765625 9.746094 -20.578125 C 7.570312 -19.390625 5.855469 -17.789062 4.59375 -15.769531 C 3.335938 -13.753906 2.707031 -11.554688 2.707031 -9.171875 C 2.707031 -6.292969 3.632812 -3.976562 5.488281 -2.226562 C 7.347656 -0.46875 9.777344 0.410156 12.78125 0.410156 C 15.285156 0.410156 17.628906 -0.21875 19.8125 -1.46875 C 21.992188 -2.71875 23.675781 -4.453125 24.871094 -6.671875 C 26.070312 -8.894531 26.667969 -11.039062 26.667969 -13.101562 Z M 13.652344 -5.121094 C 14.910156 -5.121094 16.070312 -5.46875 17.132812 -6.160156 C 18.207031 -6.863281 19.058594 -7.765625 19.695312 -8.875 C 20.324219 -9.984375 20.640625 -11.070312 20.640625 -12.140625 C 20.640625 -13.441406 20.148438 -14.550781 19.15625 -15.457031 C 18.160156 -16.371094 16.964844 -16.828125 15.574219 -16.828125 C 14.484375 -16.828125 13.398438 -16.53125 12.320312 -15.9375 C 11.242188 -15.339844 10.371094 -14.539062 9.710938 -13.535156 C 9.058594 -12.542969 8.730469 -11.433594 8.730469 -10.21875 C 8.730469 -8.730469 9.191406 -7.507812 10.113281 -6.550781 C 11.03125 -5.597656 12.210938 -5.121094 13.652344 -5.121094 Z M 13.652344 -4.484375 C 12.03125 -4.484375 10.695312 -5.027344 9.652344 -6.109375 C 8.613281 -7.191406 8.09375 -8.558594 8.09375 -10.21875 C 8.09375 -11.5625 8.457031 -12.785156 9.179688 -13.886719 C 9.898438 -14.976562 10.84375 -15.847656 12.015625 -16.492188 C 13.1875 -17.140625 14.375 -17.464844 15.574219 -17.464844 C 17.132812 -17.464844 18.46875 -16.953125 19.589844 -15.925781 C 20.714844 -14.890625 21.277344 -13.628906 21.277344 -12.140625 C 21.277344 -10.957031 20.933594 -9.765625 20.246094 -8.5625 C 19.5625 -7.363281 18.640625 -6.382812 17.480469 -5.628906 C 16.3125 -4.867188 15.035156 -4.484375 13.652344 -4.484375 Z M 13.652344 -4.484375 "/></g></g><g style="fill:#ffcf00;fill-opacity:1;"><g transform="translate(93.86048, 54.829572)"><path style="stroke:none" d="M 14.003906 -22.269531 C 16.054688 -22.269531 17.707031 -21.78125 18.957031 -20.804688 C 20.234375 -19.808594 20.871094 -18.386719 20.871094 -16.535156 C 20.871094 -14.597656 20.296875 -12.890625 19.144531 -11.40625 C 17.988281 -9.914062 16.507812 -9.007812 14.699219 -8.683594 L 14.644531 -8.996094 L 14.914062 -9.160156 L 20.683594 0.320312 L 12.8125 0.320312 L 8.679688 -8.304688 L 8.964844 -8.441406 L 8.964844 -8.125 L 8.90625 -8.125 L 8.90625 -8.441406 L 9.222656 -8.390625 L 7.839844 0.320312 L 1.492188 0.320312 L 5.054688 -22.269531 Z M 14.003906 -21.632812 L 5.328125 -21.632812 L 5.328125 -21.949219 L 5.640625 -21.898438 L 2.175781 0.0507812 L 1.863281 0 L 1.863281 -0.320312 L 7.570312 -0.320312 L 7.570312 0 L 7.253906 -0.0507812 L 8.636719 -8.761719 L 9.167969 -8.761719 L 13.300781 -0.136719 L 13.011719 0 L 13.011719 -0.320312 L 20.117188 -0.320312 L 20.117188 0 L 19.84375 0.164062 L 14.128906 -9.226562 L 14.585938 -9.308594 C 16.234375 -9.605469 17.585938 -10.433594 18.640625 -11.796875 C 19.703125 -13.164062 20.234375 -14.746094 20.234375 -16.535156 C 20.234375 -18.179688 19.679688 -19.433594 18.566406 -20.300781 C 17.429688 -21.1875 15.910156 -21.632812 14.003906 -21.632812 Z M 9.488281 -12.429688 L 10.277344 -12.429688 C 11.542969 -12.429688 12.515625 -12.6875 13.199219 -13.207031 C 13.851562 -13.707031 14.179688 -14.445312 14.179688 -15.429688 C 14.179688 -16.027344 13.933594 -16.476562 13.445312 -16.773438 C 12.902344 -17.101562 12.070312 -17.265625 10.945312 -17.265625 L 10.363281 -17.265625 L 10.363281 -17.582031 L 10.679688 -17.53125 L 9.804688 -12.058594 L 9.488281 -12.109375 Z M 9.117188 -11.792969 L 10.09375 -17.902344 L 10.945312 -17.902344 C 12.1875 -17.902344 13.132812 -17.707031 13.773438 -17.316406 C 14.46875 -16.894531 14.816406 -16.265625 14.816406 -15.429688 C 14.816406 -14.238281 14.40625 -13.328125 13.585938 -12.703125 C 12.789062 -12.09375 11.6875 -11.792969 10.277344 -11.792969 Z M 9.117188 -11.792969 "/></g></g><g style="fill:#ffcf00;fill-opacity:1;"><g transform="translate(113.015558, 54.829572)"><path style="stroke:none" d="M 19.089844 -21.902344 L 18.292969 -16.800781 L 13.304688 -16.800781 L 13.304688 -17.117188 L 13.617188 -17.066406 L 10.867188 0.320312 L 4.519531 0.320312 L 7.285156 -17.167969 L 7.597656 -17.117188 L 7.597656 -16.800781 L 2.511719 -16.800781 L 3.367188 -22.269531 L 19.148438 -22.269531 Z M 18.460938 -22 L 18.777344 -21.949219 L 18.777344 -21.632812 L 3.640625 -21.632812 L 3.640625 -21.949219 L 3.953125 -21.902344 L 3.195312 -17.066406 L 2.882812 -17.117188 L 2.882812 -17.4375 L 7.972656 -17.4375 L 5.207031 0.0507812 L 4.890625 0 L 4.890625 -0.320312 L 10.597656 -0.320312 L 10.597656 0 L 10.28125 -0.0507812 L 13.03125 -17.4375 L 18.019531 -17.4375 L 18.019531 -17.117188 L 17.707031 -17.167969 Z M 18.460938 -22 "/></g></g><g style="fill:#ffcf00;fill-opacity:1;"><g transform="translate(127.891306, 54.829572)"><path style="stroke:none" d="M 18.332031 -22.019531 L 23.21875 0.320312 L 16.480469 0.320312 L 15.613281 -3.746094 L 15.921875 -3.8125 L 15.921875 -3.496094 L 8.0625 -3.496094 L 8.0625 -3.8125 L 8.34375 -3.660156 L 6.125 0.320312 L -0.652344 0.320312 L 11.601562 -22.269531 L 18.277344 -22.269531 Z M 17.707031 -21.882812 L 18.019531 -21.949219 L 18.019531 -21.632812 L 11.789062 -21.632812 L 11.789062 -21.949219 L 12.070312 -21.796875 L 0.164062 0.152344 L -0.117188 0 L -0.117188 -0.320312 L 5.9375 -0.320312 L 5.9375 0 L 5.660156 -0.15625 L 7.875 -4.132812 L 16.179688 -4.132812 L 17.050781 -0.0664062 L 16.738281 0 L 16.738281 -0.320312 L 22.824219 -0.320312 L 22.824219 0 L 22.511719 0.0664062 Z M 10.335938 -8.5 L 15.078125 -8.5 L 15.078125 -8.179688 L 14.765625 -8.125 L 13.542969 -15.113281 L 13.855469 -15.167969 L 13.855469 -14.847656 L 13.796875 -14.847656 L 13.796875 -15.167969 L 14.082031 -15.027344 L 10.621094 -8.039062 L 10.335938 -8.179688 Z M 9.820312 -7.863281 L 13.601562 -15.484375 L 14.125 -15.484375 L 15.457031 -7.863281 Z M 9.820312 -7.863281 "/></g></g><g style="fill:#ffcf00;fill-opacity:1;"><g transform="translate(149.986594, 54.829572)"><path style="stroke:none" d="M 11.347656 -21.898438 L 8.640625 -4.78125 L 8.324219 -4.832031 L 8.324219 -5.152344 L 15.539062 -5.152344 L 14.683594 0.320312 L 1.492188 0.320312 L 5.054688 -22.269531 L 11.40625 -22.269531 Z M 10.71875 -22 L 11.03125 -21.949219 L 11.03125 -21.632812 L 5.328125 -21.632812 L 5.328125 -21.949219 L 5.640625 -21.898438 L 2.175781 0.0507812 L 1.863281 0 L 1.863281 -0.320312 L 14.410156 -0.320312 L 14.410156 0 L 14.09375 -0.0507812 L 14.851562 -4.882812 L 15.167969 -4.832031 L 15.167969 -4.515625 L 7.953125 -4.515625 Z M 10.71875 -22 "/></g></g><g clip-rule="nonzero" clip-path="url(#48c1219c64)"><path style=" stroke:none;fill-rule:evenodd;fill:#ffcf00;fill-opacity:1;" d="M 97.203125 44.230469 C 97.203125 40.53125 95.699219 37.195312 93.285156 34.765625 C 90.871094 32.351562 87.519531 30.847656 83.835938 30.847656 C 80.140625 30.847656 76.800781 32.351562 74.375 34.765625 C 71.960938 37.195312 70.457031 40.53125 70.457031 44.230469 C 70.457031 47.910156 71.960938 51.265625 74.375 53.675781 C 76.800781 56.089844 80.140625 57.59375 83.835938 57.59375 C 87.519531 57.59375 90.871094 56.089844 93.285156 53.675781 C 95.699219 51.265625 97.203125 47.910156 97.203125 44.230469 Z M 97.203125 44.230469 "/></g><path style=" stroke:none;fill-rule:evenodd;fill:#ffffff;fill-opacity:1;" d="M 77.632812 45.703125 L 84.527344 34.078125 C 84.699219 33.777344 85.089844 33.683594 85.386719 33.855469 C 85.574219 33.984375 85.6875 34.1875 85.6875 34.390625 L 85.6875 42.113281 L 89.507812 42.113281 C 89.855469 42.113281 90.136719 42.394531 90.136719 42.742188 C 90.136719 42.882812 90.105469 42.992188 90.027344 43.101562 L 83.523438 54.367188 C 83.351562 54.664062 82.976562 54.773438 82.675781 54.585938 C 82.472656 54.476562 82.347656 54.257812 82.363281 54.039062 L 82.363281 46.671875 L 78.148438 46.671875 C 77.804688 46.671875 77.523438 46.390625 77.523438 46.046875 C 77.523438 45.921875 77.570312 45.796875 77.632812 45.703125 Z M 77.632812 45.703125 "/></g></svg>